<svg xmlns="http://www.w3.org/2000/svg" version="1.1" width="512" height="512" x="0" y="0" viewBox="0 0 512 512" style="enable-background:new 0 0 512 512" xml:space="preserve" class=""><g><path xmlns="http://www.w3.org/2000/svg" d="m30 0h30v512h-30zm0 0" fill="#676e74" data-original="#676e74"></path><path xmlns="http://www.w3.org/2000/svg" d="m452 0h30v512h-30zm0 0" fill="#474f54" data-original="#474f54"></path><path xmlns="http://www.w3.org/2000/svg" d="m437 241v30c-115.800781 0-159.699219 44.097656-177.699219 63l-11.402343 11.398438c-51.597657 51.601562-107.199219 75.601562-172.898438 75.601562v-30c57.300781 0 106-21.300781 151.601562-66.902344l11.097657-11.097656c4.5-4.800781 10.5-10.800781 18.300781-17.398438 27.597656-23.703124 80.5-54.601562 181-54.601562zm0 0" fill="#da90f8" data-original="#da90f8"></path><path xmlns="http://www.w3.org/2000/svg" d="m437 241v30c-115.800781 0-159.699219 44.097656-177.699219 63l-3.300781 3.300781v-41.699219c27.597656-23.703124 80.5-54.601562 181-54.601562zm0 0" fill="#b760ea" data-original="#b760ea"></path><path xmlns="http://www.w3.org/2000/svg" d="m45 451c-24.8125 0-45-20.1875-45-45s20.1875-45 45-45 45 20.1875 45 45-20.1875 45-45 45zm0 0" fill="#da90f8" data-original="#da90f8"></path><path xmlns="http://www.w3.org/2000/svg" d="m467 301c-24.8125 0-45-20.1875-45-45s20.1875-45 45-45 45 20.1875 45 45-20.1875 45-45 45zm0 0" fill="#b760ea" data-original="#b760ea"></path><path xmlns="http://www.w3.org/2000/svg" d="m437 91v30c-115.800781 0-159.699219 44.097656-177.699219 63l-11.402343 11.398438c-51.597657 51.601562-107.199219 75.601562-172.898438 75.601562v-30c57.300781 0 106-21.300781 151.601562-66.902344l11.097657-11.097656c4.5-4.800781 10.5-10.800781 18.300781-17.398438 27.597656-23.703124 80.5-54.601562 181-54.601562zm0 0" fill="#64e1dc" data-original="#64e1dc" class=""></path><path xmlns="http://www.w3.org/2000/svg" d="m437 91v30c-115.800781 0-159.699219 44.097656-177.699219 63l-3.300781 3.300781v-41.699219c27.597656-23.703124 80.5-54.601562 181-54.601562zm0 0" fill="#00c8c8" data-original="#00c8c8"></path><path xmlns="http://www.w3.org/2000/svg" d="m285.398438 289-20.699219-51.300781c-2.699219-6.898438-5.699219-13.5-8.699219-19.800781-38.699219-82.199219-101.800781-126.898438-177.699219-126.898438h-1.800781l-1.5 15 1.800781 15h1.5c69.597657 0 125.199219 44.097656 158.5 127.800781l19.199219 47.699219 1.5 3.597656c22.199219 55.800782 83.5 120.902344 179.5 120.902344v-30c-106.800781 0-147.398438-91.5-151.601562-102zm0 0" fill="#fdbf00" data-original="#fdbf00"></path><path xmlns="http://www.w3.org/2000/svg" d="m437 391v30c-96 0-157.300781-65.101562-179.5-120.902344l-1.5-3.597656v-78.601562c3 6.300781 6 12.902343 8.699219 19.800781l20.699219 51.300781c4.203124 10.5 44.800781 102 151.601562 102zm0 0" fill="#ff9100" data-original="#ff9100"></path><path xmlns="http://www.w3.org/2000/svg" d="m45 151c-24.8125 0-45-20.1875-45-45s20.1875-45 45-45 45 20.1875 45 45-20.1875 45-45 45zm0 0" fill="#fdbf00" data-original="#fdbf00"></path><path xmlns="http://www.w3.org/2000/svg" d="m467 451c-24.8125 0-45-20.1875-45-45s20.1875-45 45-45 45 20.1875 45 45-20.1875 45-45 45zm0 0" fill="#ff9100" data-original="#ff9100"></path><path xmlns="http://www.w3.org/2000/svg" d="m45 301c-24.8125 0-45-20.1875-45-45s20.1875-45 45-45 45 20.1875 45 45-20.1875 45-45 45zm0 0" fill="#64e1dc" data-original="#64e1dc" class=""></path><path xmlns="http://www.w3.org/2000/svg" d="m467 151c-24.8125 0-45-20.1875-45-45s20.1875-45 45-45 45 20.1875 45 45-20.1875 45-45 45zm0 0" fill="#00c8c8" data-original="#00c8c8"></path></g></svg>
